<?xml version="1.0" encoding="UTF-8" standalone="no"?>
<!-- Created with Inkscape (http://www.inkscape.org/) -->

<svg
   width="199.3457"
   height="82.908211"
   viewBox="0 0 52.743549 21.936132"
   version="1.1"
   id="svg2219"
   xmlns="http://www.w3.org/2000/svg"
   xmlns:svg="http://www.w3.org/2000/svg"
   xmlns:rdf="http://www.w3.org/1999/02/22-rdf-syntax-ns#"
   xmlns:cc="http://creativecommons.org/ns#"
   xmlns:dc="http://purl.org/dc/elements/1.1/">
  <defs
     id="defs2213">
    <clipPath
       clipPathUnits="userSpaceOnUse"
       id="clipPath931">
      <rect
         y="11.249973"
         x="1030.5166"
         height="285.75"
         width="285.75"
         id="rect933"
         style="opacity:1;fill:#ffffff;fill-opacity:1;stroke:none;stroke-width:3.96875;stroke-linecap:round;stroke-miterlimit:4;stroke-dasharray:none;stroke-opacity:1" />
    </clipPath>
    <rect
       x="357.57172"
       y="984"
       width="294.94916"
       height="237.53648"
       id="rect179-4" />
    <rect
       x="357.57172"
       y="984"
       width="294.94916"
       height="237.53648"
       id="rect203" />
    <rect
       x="357.57172"
       y="984"
       width="294.94916"
       height="237.53648"
       id="rect205" />
  </defs>
  <metadata
     id="metadata2216">
    <rdf:RDF>
      <cc:Work
         rdf:about="">
        <dc:format>image/svg+xml</dc:format>
        <dc:type
           rdf:resource="http://purl.org/dc/dcmitype/StillImage" />
      </cc:Work>
    </rdf:RDF>
  </metadata>
  <g
     id="layer3"
     transform="translate(-19.36626,-431.71482)">
    <path
       id="logo_blue_tagline"
       style="font-weight:600;font-size:4.16573px;line-height:1.25;font-family:Fahkwang;-inkscape-font-specification:'Fahkwang Semi-Bold';letter-spacing:1.14915px;fill:#00052e;stroke-width:0.264582"
       d="m 19.36626,431.71482 v 0.18139 c 1.315528,0 1.462443,2.19056 1.462443,2.19056 v 10.47171 c 0,0 -0.146895,2.19057 -1.462443,2.19057 v 0.18138 h 1.462443 3.027722 1.462443 v -0.18138 c -1.315569,0 -1.462443,-2.19057 -1.462443,-2.19057 v -2.35644 c 0,0 0.01569,-1.5149 0.825789,-2.52543 l 0.134359,-0.16743 2.329057,4.26124 c 2.362816,4.09254 5.401281,4.13992 7.529773,2.96416 0.300235,0.29597 0.679336,0.52421 1.104842,0.65887 1.030159,0.32603 2.332233,0.1118 3.415812,-0.95136 0.10801,-0.10596 0.212689,-0.20282 0.290939,-0.2713 0.009,-0.008 0.0135,-0.0105 0.0217,-0.0176 0.0184,0.0462 0.03803,0.0936 0.05633,0.15606 0.17532,0.59672 0.546318,0.95695 0.992187,1.11156 0.44588,0.15461 0.955869,0.11534 1.437639,-0.0351 0.481769,-0.15047 0.938709,-0.41281 1.281059,-0.72295 0.342359,-0.31015 0.580326,-0.67183 0.580326,-1.04283 0,-0.0616 -0.01498,-0.12267 -0.05478,-0.17363 -0.0398,-0.051 -0.104374,-0.0825 -0.163814,-0.0879 -0.11889,-0.0105 -0.221997,0.0483 -0.318327,0.13849 -0.19519,0.18284 -0.513478,0.32727 -0.781348,0.33383 -0.13393,0.003 -0.252222,-0.0248 -0.347782,-0.0894 -0.0956,-0.0647 -0.173379,-0.16617 -0.220659,-0.33642 10e-4,0.005 -0.0058,-0.0318 -0.0098,-0.0816 -0.004,-0.0498 -0.008,-0.11825 -0.01189,-0.20516 -0.007,-0.17382 -0.01484,-0.41978 -0.01964,-0.73846 -0.01,-0.63734 -0.01344,-1.566 -0.01344,-2.79672 0,-2.04417 -0.002,-3.11357 -0.04909,-3.77135 -0.0465,-0.65777 -0.14551,-0.9182 -0.31626,-1.27331 -0.28303,-0.58843 -0.758729,-0.9634 -1.279509,-1.18597 -0.520779,-0.22257 -1.087426,-0.29869 -1.581815,-0.29869 h -0.162264 l 0.0078,0.0351 c -1.745178,0.0508 -2.958202,0.7998 -3.642671,1.66191 -0.35397,0.44582 -0.575959,0.91147 -0.677478,1.31672 -0.10151,0.40525 -0.09747,0.75451 0.07803,0.97617 0.21026,0.26554 0.499401,0.37965 0.91984,0.37723 0.47011,-0.003 0.838067,-0.18242 1.089856,-0.54105 0.0751,-0.10701 0.129397,-0.20174 0.160197,-0.33589 0.0308,-0.13416 0.04373,-0.30296 0.06253,-0.5979 0.0375,-0.58755 0.16618,-0.95904 0.36897,-1.17977 0.202799,-0.22072 0.49179,-0.3142 0.91829,-0.3142 0.412169,0 0.702149,0.13886 0.929659,0.37672 0.22242,0.23255 0.376948,0.57086 0.484208,0.9555 l -0.09715,-0.63045 c 0.002,0.003 0.0032,0.007 0.0052,0.01 l 0.09767,0.62993 c 10e-4,0.005 0.0052,0.007 0.0062,0.0119 0.005,0.0178 3.74e-4,0.0389 0.0057,0.0568 l 0.0186,0.11989 c 0.0623,0.27312 0.103918,0.56236 0.131258,0.8537 l 0.191719,1.24385 -0.188619,-1.21181 c 0.0432,0.47814 0.05044,0.958 0.05064,1.36942 -1.255329,0.33829 -2.591104,0.72293 -3.632853,1.43351 -1.071929,0.73116 -1.830379,1.81273 -1.830379,3.45715 0,0.26497 0.04737,0.51772 0.133842,0.75292 -1.671899,0.22399 -2.883042,-0.7539 -3.771863,-2.2934 l -3.636471,-6.43836 2.68149,-3.3445 c 0,0 1.480812,-1.90841 2.82205,-1.90841 v -0.18139 h -4.16512 v 0.18139 c 1.559358,0.47475 0.02946,2.43654 0.02946,2.43654 l -4.21938,5.16196 v -5.40794 c 0,0 0.146377,-2.19056 1.461926,-2.19056 v -0.18139 h -1.461926 -3.028239 z m 20.029268,7.15306 c -9.7e-4,-0.0107 -0.0021,-0.0213 -0.0031,-0.032 l -0.131258,-0.8537 c -0.005,-0.0222 -0.009,-0.0452 -0.01447,-0.0672 z m 8.227405,-7.15306 v 0.18139 c 1.315509,0 1.462443,2.19056 1.462443,2.19056 v 10.47171 c 0,0 -0.146914,2.19057 -1.462443,2.19057 v 0.18138 h 1.462443 3.028239 1.461926 v -0.18138 c -1.315538,0 -1.461926,-2.19057 -1.461926,-2.19057 v -4.93613 c 1.575968,0.18116 2.515742,2.79202 3.305741,4.14807 2.180108,3.77611 4.9373,4.10952 7.022828,3.21531 0.170015,-0.0729 0.334846,-0.15473 0.494543,-0.2434 0.298827,0.29208 0.674995,0.51771 1.096574,0.65112 1.030159,0.32603 2.33274,0.1118 3.416329,-0.95136 0.108,-0.10596 0.212688,-0.20282 0.290938,-0.2713 0.009,-0.008 0.01299,-0.0105 0.02119,-0.0176 0.0184,0.0462 0.03854,0.0936 0.05685,0.15606 0.175329,0.59672 0.546318,0.95695 0.992187,1.11156 0.44587,0.15461 0.955859,0.11482 1.437638,-0.0356 0.48178,-0.15048 0.9387,-0.4123 1.281059,-0.72244 0.34236,-0.31015 0.580327,-0.67183 0.580327,-1.04283 0,-0.0616 -0.01498,-0.12319 -0.05478,-0.17415 -0.0398,-0.051 -0.104891,-0.0825 -0.164331,-0.0879 -0.118889,-0.0105 -0.221996,0.0488 -0.318326,0.13901 -0.1952,0.18284 -0.511411,0.32727 -0.779281,0.33383 -0.13393,0.003 -0.253773,-0.0253 -0.349333,-0.0899 -0.0956,-0.0647 -0.173388,-0.16565 -0.220658,-0.3359 10e-4,0.005 -0.006,-0.0324 -0.01034,-0.0822 -0.004,-0.0498 -0.008,-0.11773 -0.01137,-0.20464 -0.007,-0.17382 -0.01319,-0.41978 -0.01809,-0.73846 -0.01,-0.63734 -0.0155,-1.566 -0.0155,-2.79672 0,-2.04417 -0.002,-3.11411 -0.04858,-3.77187 -0.0465,-0.65777 -0.14552,-0.91818 -0.316259,-1.2733 -0.28304,-0.58843 -0.758729,-0.96289 -1.279509,-1.18546 -0.520779,-0.22257 -1.087436,-0.29869 -1.581815,-0.29869 h -0.132809 v 0.031 c -1.758778,0.0441 -2.97615,0.79986 -3.663859,1.66605 -0.35397,0.44582 -0.576475,0.91095 -0.677995,1.3162 -0.10152,0.40525 -0.09747,0.75503 0.07803,0.97669 0.210259,0.26554 0.499401,0.37965 0.91984,0.37723 0.47012,-0.003 0.838076,-0.18242 1.089856,-0.54105 0.0751,-0.10701 0.129387,-0.20174 0.160197,-0.33589 0.0308,-0.13417 0.04373,-0.30296 0.06253,-0.5979 0.0375,-0.58755 0.166686,-0.95904 0.369486,-1.17977 0.20279,-0.22072 0.491264,-0.3142 0.917773,-0.3142 0.41216,0 0.70216,0.13886 0.929659,0.37672 0.21481,0.22459 0.361756,0.55393 0.468706,0.92191 l 0.04909,0.31626 c 0.14901,0.71411 0.186709,1.52402 0.187069,2.17041 -1.255349,0.33829 -2.590587,0.72293 -3.632336,1.43351 -1.071939,0.73116 -1.83038,1.81222 -1.83038,3.45663 0,0.23275 0.03802,0.45529 0.10542,0.66559 -2.845818,0.0608 -4.658326,-3.63972 -6.019271,-6.41872 2.019338,-0.15498 3.87894,-1.87333 3.810621,-3.89744 v -0.014 c 0,-2.06994 -1.678164,-3.7481 -3.748092,-3.7481 h -7.299813 z m 4.490682,0.82114 h 1.879472 c 1.658588,0 3.002917,1.34432 3.002917,3.00292 v 0.2465 c 0,1.65861 -1.344329,3.00343 -3.002917,3.00343 h -1.879472 z m 15.364954,5.24826 c 0.002,0.009 0.009,0.0123 0.01189,0.0212 0.009,0.0344 6.39e-4,0.0745 0.0098,0.10955 z m -28.025163,3.45095 -0.01395,3.75171 c -0.26556,0.28502 -0.549707,0.54139 -0.862996,0.6997 -0.32244,0.16295 -0.66949,0.22824 -1.070219,0.14625 -0.778739,-0.25874 -1.131692,-1.06104 -0.996322,-1.95906 0.1357,-0.90021 0.770251,-1.87063 1.97249,-2.38642 0.12546,-0.0538 0.398731,-0.12691 0.63872,-0.1819 0.11999,-0.0275 0.233554,-0.0515 0.320394,-0.0682 0.005,-9.1e-4 0.007,-0.001 0.01189,-0.002 z m 28.254089,0 -0.01395,3.75171 c -0.26525,0.28456 -0.550117,0.5416 -0.862997,0.6997 -0.322449,0.16295 -0.670016,0.22824 -1.070735,0.14625 -0.77875,-0.25874 -1.129108,-1.06104 -0.993738,-1.95906 0.13569,-0.90021 0.768183,-1.87063 1.970422,-2.38642 0.12546,-0.0538 0.398731,-0.12691 0.638721,-0.1819 0.12,-0.0275 0.233564,-0.0515 0.320394,-0.0682 0.005,-9e-4 0.007,-0.001 0.01188,-0.002 z m -21.967651,3.668 a 1.2491305,1.2491305 0 0 0 -1.249536,1.24902 1.2491305,1.2491305 0 0 0 1.249536,1.24902 1.2491305,1.2491305 0 0 0 1.249019,-1.24902 1.2491305,1.2491305 0 0 0 -1.249019,-1.24902 z m 3.571358,4.37131 v 4.37647 h 21.960417 v -4.37647 z m 2.423625,0.60203 c 0.42768,0 0.753803,0.0721 0.978751,0.21652 0.224941,0.1444 0.350176,0.3404 0.375171,0.58756 H 52.59679 c -0.03892,-0.20273 -0.131872,-0.34746 -0.279053,-0.43356 -0.147191,-0.0888 -0.349959,-0.13333 -0.608232,-0.13333 -0.236062,0 -0.412531,0.0404 -0.529166,0.12092 -0.116644,0.0778 -0.175183,0.18026 -0.175183,0.308 0,0.0722 0.02141,0.13618 0.06305,0.19172 0.04164,0.0555 0.121929,0.10811 0.241329,0.15813 0.122197,0.05 0.298666,0.0999 0.529166,0.14986 0.308262,0.0667 0.554134,0.1352 0.737423,0.20464 0.1833,0.0694 0.327519,0.16647 0.433049,0.29145 0.105538,0.12497 0.158129,0.28872 0.158129,0.49144 0,0.17496 -0.05668,0.32649 -0.170532,0.45424 -0.113868,0.12498 -0.274892,0.22067 -0.483174,0.28732 -0.208293,0.0667 -0.45144,0.0997 -0.729155,0.0997 -0.441571,0 -0.792635,-0.0848 -1.053682,-0.25425 -0.258283,-0.16941 -0.395712,-0.40797 -0.412378,-0.71624 h 0.499711 c 0.0167,0.2555 0.102375,0.44197 0.257865,0.55862 0.158305,0.11663 0.391954,0.17467 0.700216,0.17467 0.258283,0 0.451027,-0.0463 0.578776,-0.13798 0.130524,-0.0916 0.195854,-0.22449 0.195854,-0.39945 0,-0.0972 -0.02353,-0.1807 -0.0708,-0.25012 -0.04727,-0.0694 -0.134806,-0.13204 -0.262516,-0.18758 -0.127758,-0.0555 -0.31049,-0.10677 -0.549321,-0.154 -0.374915,-0.0749 -0.68255,-0.17798 -0.921391,-0.30851 -0.236052,-0.13052 -0.353983,-0.31868 -0.353983,-0.56585 0,-0.27215 0.125227,-0.46594 0.375171,-0.57981 0.249943,-0.11664 0.572507,-0.17415 0.966866,-0.17415 z m -31.530375,0.0186 v 2.9161 h 0.616499 v -0.94568 l 0.387574,-0.38344 0.991154,1.32912 h 0.729154 l -1.299662,-1.74976 1.170471,-1.16634 h -0.533301 l -1.44539,1.43299 v -1.43299 z m 45.591015,0.0269 c 0.10553,0 0.190369,0.0309 0.254248,0.092 0.06668,0.0583 0.100253,0.13448 0.100253,0.22892 0,0.0944 -0.03364,0.17247 -0.100253,0.23358 -0.06387,0.0583 -0.148718,0.0868 -0.254248,0.0868 -0.105539,0 -0.191727,-0.0285 -0.258382,-0.0868 -0.06387,-0.0611 -0.0956,-0.13915 -0.0956,-0.23358 0,-0.0945 0.03173,-0.1706 0.0956,-0.22892 0.06668,-0.061 0.152843,-0.092 0.258382,-0.092 z m -37.473165,0.0439 v 2.8453 h 0.537435 v -2.8453 z m 34.866089,0.0186 h 0.537435 v 2.8453 h -0.537435 v -0.33383 c -0.155528,0.24994 -0.402748,0.37518 -0.741557,0.37518 -0.211058,0 -0.39974,-0.0445 -0.566373,-0.13333 -0.166624,-0.0916 -0.297282,-0.21822 -0.391708,-0.3793 -0.09445,-0.16385 -0.141593,-0.34795 -0.141593,-0.55346 0,-0.21384 0.04309,-0.40034 0.129191,-0.55862 0.0861,-0.16108 0.208091,-0.28443 0.366386,-0.37052 0.161071,-0.0861 0.346204,-0.12919 0.554488,-0.12919 0.180514,0 0.338313,0.035 0.47439,0.10438 0.136077,0.0694 0.241783,0.16785 0.316776,0.29559 z m -8.075993,0.22893 h 0.378789 v 0.57464 h 0.56689 l -0.06253,0.2005 h -0.504362 v 1.3162 c 0,0.23883 0.09345,0.35864 0.279569,0.35864 0.0972,0 0.195095,-0.0269 0.295073,-0.0796 v 0.20826 c -0.127748,0.0527 -0.295045,0.0796 -0.503329,0.0796 -0.199956,0 -0.351999,-0.0513 -0.454753,-0.15399 -0.102761,-0.10276 -0.153995,-0.25616 -0.153995,-0.45889 v -1.27021 h -0.361735 l 0.06615,-0.2005 h 0.304374 z m -29.663822,0.51469 c -0.30271,0 -0.54315,0.058 -0.720886,0.17467 -0.17774,0.11664 -0.281579,0.28497 -0.312126,0.50436 h 0.408244 c 0.02222,-0.15552 0.0816,-0.27344 0.1788,-0.35398 0.09998,-0.0833 0.233347,-0.12506 0.399976,-0.12506 0.172183,0 0.304195,0.0431 0.395841,0.12919 0.09165,0.0833 0.13746,0.20531 0.13746,0.36639 v 0.14159 h -0.566374 c -0.327704,0 -0.578999,0.0572 -0.753959,0.17105 -0.172183,0.11386 -0.258382,0.27625 -0.258382,0.48731 0,0.20273 0.07211,0.35833 0.216524,0.46664 0.144412,0.10831 0.361267,0.16226 0.650089,0.16226 0.158298,0 0.302523,-0.0277 0.433049,-0.0832 0.130526,-0.0555 0.23624,-0.14309 0.316776,-0.26251 0.01111,0.0972 0.03011,0.19883 0.05788,0.30437 h 0.504362 c -0.04165,-0.20551 -0.06253,-0.43049 -0.06253,-0.67489 v -0.66663 c 0,-0.23884 -0.08891,-0.42209 -0.266651,-0.54984 -0.17496,-0.12775 -0.427612,-0.19172 -0.758093,-0.19172 z m 6.268351,0 c -0.30271,0 -0.543148,0.058 -0.720886,0.17467 -0.177739,0.11664 -0.281579,0.28497 -0.312126,0.50436 h 0.407727 c 0.02222,-0.15552 0.08212,-0.27344 0.179318,-0.35398 0.09998,-0.0833 0.233346,-0.12506 0.399975,-0.12506 0.172183,0 0.304196,0.0431 0.395842,0.12919 0.09164,0.0833 0.137459,0.20531 0.137459,0.36639 v 0.14159 h -0.566374 c -0.327702,0 -0.579515,0.0572 -0.754476,0.17105 -0.172184,0.11386 -0.257865,0.27625 -0.257865,0.48731 0,0.20273 0.07211,0.35833 0.216524,0.46664 0.144412,0.10831 0.360749,0.16226 0.649573,0.16226 0.158298,0 0.303039,-0.0277 0.433565,-0.0832 0.130526,-0.0555 0.235722,-0.14309 0.31626,-0.26251 0.01111,0.0972 0.03062,0.19883 0.05839,0.30437 h 0.504362 c -0.04166,-0.20551 -0.06253,-0.43049 -0.06253,-0.67489 v -0.66663 c 0,-0.23884 -0.08891,-0.42209 -0.266651,-0.54984 -0.174959,-0.12775 -0.427613,-0.19172 -0.758093,-0.19172 z m 3.969267,0 c -0.169407,0 -0.310917,0.0417 -0.42478,0.12506 -0.113866,0.0805 -0.195994,0.19439 -0.24598,0.34158 v -0.42478 h -0.541569 v 2.04122 h 0.541569 v -0.93328 c 0,-0.22772 0.04988,-0.42371 0.149861,-0.58756 0.09998,-0.16663 0.250148,-0.24959 0.450102,-0.24959 0.07221,0 0.130233,0.0109 0.174667,0.0331 l 0.03772,-0.32918 c -0.04444,-0.0111 -0.09161,-0.0165 -0.141593,-0.0165 z m 2.627747,0 c -0.30271,0 -0.542632,0.058 -0.72037,0.17467 -0.177739,0.11664 -0.282096,0.28497 -0.312642,0.50436 h 0.408243 c 0.02222,-0.15552 0.08212,-0.27344 0.179318,-0.35398 0.09998,-0.0833 0.233346,-0.12506 0.399975,-0.12506 0.172183,0 0.303679,0.0431 0.395325,0.12919 0.09165,0.0833 0.137459,0.20531 0.137459,0.36639 v 0.14159 h -0.566373 c -0.327704,0 -0.578999,0.0572 -0.75396,0.17105 -0.172182,0.11386 -0.258382,0.27625 -0.258382,0.48731 0,0.20273 0.07211,0.35833 0.216525,0.46664 0.14441,0.10831 0.361265,0.16226 0.650089,0.16226 0.158298,0 0.302523,-0.0277 0.433049,-0.0832 0.130524,-0.0555 0.236238,-0.14309 0.316776,-0.26251 0.01111,0.0972 0.03062,0.19883 0.05839,0.30437 h 0.503846 c -0.04166,-0.20551 -0.06253,-0.43049 -0.06253,-0.67489 v -0.66663 c 0,-0.23884 -0.08891,-0.42209 -0.26665,-0.54984 -0.174961,-0.12775 -0.427614,-0.19172 -0.758093,-0.19172 z m 3.748608,0 c -0.32215,0 -0.569374,0.0512 -0.741557,0.154 -0.172183,0.10275 -0.257865,0.24291 -0.257865,0.42065 0,0.16108 0.07618,0.28902 0.228926,0.38344 0.152743,0.0944 0.405395,0.16926 0.758094,0.22479 0.380468,0.0583 0.570507,0.17811 0.570507,0.35863 0,0.11664 -0.05124,0.20963 -0.153995,0.27905 -0.09998,0.0694 -0.23606,0.10387 -0.408244,0.10387 -0.186069,0 -0.331652,-0.0358 -0.437183,-0.108 -0.105533,-0.075 -0.17086,-0.18205 -0.195854,-0.32091 h -0.412377 c 0.04721,0.20551 0.156996,0.36246 0.329178,0.47077 0.174961,0.10553 0.409457,0.15813 0.703833,0.15813 0.36103,0 0.637268,-0.0526 0.82889,-0.15813 0.194401,-0.10831 0.291456,-0.26661 0.291456,-0.4749 0,-0.17774 -0.0789,-0.31924 -0.237195,-0.42478 -0.155521,-0.10831 -0.401388,-0.19044 -0.737423,-0.24598 -0.163852,-0.0277 -0.287205,-0.0554 -0.37052,-0.0832 -0.08332,-0.0305 -0.140502,-0.0641 -0.171049,-0.10026 -0.02777,-0.0389 -0.04134,-0.0861 -0.04134,-0.14159 0,-0.0944 0.04394,-0.16652 0.132808,-0.21652 0.08887,-0.0528 0.212739,-0.0791 0.371037,-0.0791 0.163852,0 0.298578,0.0358 0.40411,0.10801 0.10553,0.0694 0.172214,0.17106 0.199988,0.30437 h 0.408243 c -0.02777,-0.19718 -0.134841,-0.34871 -0.32091,-0.45424 -0.183292,-0.10553 -0.430516,-0.15813 -0.741557,-0.15813 z m 3.786332,0 c -0.30271,0 -0.543148,0.058 -0.720886,0.17467 -0.177739,0.11664 -0.281579,0.28497 -0.312126,0.50436 h 0.407727 c 0.02222,-0.15552 0.08212,-0.27344 0.179317,-0.35398 0.09998,-0.0833 0.233347,-0.12506 0.399976,-0.12506 0.172183,0 0.304196,0.0431 0.395842,0.12919 0.09164,0.0833 0.137459,0.20531 0.137459,0.36639 v 0.14159 h -0.566374 c -0.327704,0 -0.579515,0.0572 -0.754476,0.17105 -0.172184,0.11386 -0.257865,0.27625 -0.257865,0.48731 0,0.20273 0.07211,0.35833 0.216524,0.46664 0.144412,0.10831 0.360749,0.16226 0.649573,0.16226 0.158298,0 0.303039,-0.0277 0.433565,-0.0832 0.130527,-0.0555 0.235723,-0.14309 0.31626,-0.26251 0.01111,0.0972 0.03062,0.19883 0.05839,0.30437 h 0.504362 c -0.04166,-0.20551 -0.06253,-0.43049 -0.06253,-0.67489 v -0.66663 c 0,-0.23884 -0.08891,-0.42209 -0.266651,-0.54984 -0.174959,-0.12775 -0.427612,-0.19172 -0.758093,-0.19172 z m 23.174296,0.0186 c 0.252721,0 0.472292,0.0431 0.658358,0.12919 0.188841,0.0861 0.333587,0.20944 0.433565,0.37052 0.09998,0.15828 0.149862,0.34614 0.149862,0.56276 0,0.21661 -0.04988,0.4053 -0.149862,0.56637 -0.09998,0.15829 -0.244724,0.28029 -0.433565,0.36638 -0.186066,0.0861 -0.405637,0.1292 -0.658358,0.1292 -0.25272,0 -0.473124,-0.0431 -0.661975,-0.1292 -0.186075,-0.0861 -0.330294,-0.20809 -0.433048,-0.36638 -0.09998,-0.16107 -0.150379,-0.34976 -0.150379,-0.56637 0,-0.21662 0.05039,-0.40448 0.150379,-0.56276 0.102754,-0.16108 0.246973,-0.28443 0.433048,-0.37052 0.188851,-0.0861 0.409255,-0.12919 0.661975,-0.12919 z m -11.478369,0.0413 h 0.536918 v 1.33738 c 0,0.17773 0.04042,0.31382 0.120923,0.40825 0.08328,0.0916 0.203957,0.13746 0.362252,0.13746 0.186066,0 0.333517,-0.0648 0.441833,-0.19534 0.111092,-0.13053 0.166915,-0.3075 0.166915,-0.52968 v -1.15807 h 0.536918 v 2.04173 h -0.536918 v -0.34571 c -0.06387,0.11942 -0.164154,0.21324 -0.30024,0.28267 -0.133301,0.0694 -0.28431,0.10439 -0.453719,0.10439 -0.272163,0 -0.486302,-0.0689 -0.641821,-0.20774 -0.155519,-0.14163 -0.233061,-0.33542 -0.233061,-0.57981 z m 7.979875,0 h 0.541569 v 2.04173 h -0.541569 z m -3.002401,0.14624 c -0.199956,0 -0.356073,0.0762 -0.467155,0.22893 -0.111092,0.14997 -0.166398,0.36275 -0.166398,0.63769 0,0.27216 0.05717,0.48527 0.171049,0.64078 0.116634,0.15552 0.274952,0.2341 0.474906,0.2341 0.199956,0 0.357756,-0.0785 0.47439,-0.2341 0.119421,-0.15551 0.179317,-0.36507 0.179317,-0.6289 0,-0.26938 -0.05994,-0.4825 -0.179317,-0.64079 -0.11942,-0.15831 -0.281284,-0.23771 -0.486792,-0.23771 z m 6.500895,0.0124 c -0.216621,0 -0.38714,0.0775 -0.512113,0.23306 -0.124972,0.15275 -0.187586,0.3623 -0.187586,0.6289 0,0.2666 0.0626,0.47752 0.187586,0.63303 0.124973,0.15275 0.295492,0.22945 0.512113,0.22945 0.216613,0 0.387659,-0.0767 0.51263,-0.22945 0.124972,-0.15551 0.187586,-0.36643 0.187586,-0.63303 0,-0.2666 -0.06261,-0.47615 -0.187586,-0.6289 -0.124971,-0.15552 -0.296017,-0.23306 -0.51263,-0.23306 z m -43.503804,0.82268 h 0.416512 v 0.32918 c 0,0.16663 -0.05396,0.30273 -0.162264,0.40825 -0.105532,0.10276 -0.248917,0.15399 -0.429432,0.15399 -0.147188,0 -0.259687,-0.0371 -0.337447,-0.11214 -0.07498,-0.075 -0.112137,-0.18475 -0.112137,-0.32917 0,-0.14719 0.0526,-0.25834 0.158129,-0.33332 0.105532,-0.0778 0.261129,-0.11679 0.466639,-0.11679 z m 6.268351,0 h 0.416512 v 0.32918 c 0,0.16663 -0.05447,0.30273 -0.162781,0.40825 -0.105531,0.10276 -0.248399,0.15399 -0.428914,0.15399 -0.147189,0 -0.259687,-0.0371 -0.337447,-0.11214 -0.07498,-0.075 -0.112138,-0.18475 -0.112138,-0.32917 0,-0.14719 0.0526,-0.25834 0.15813,-0.33332 0.105532,-0.0778 0.261129,-0.11679 0.466638,-0.11679 z m 6.597013,0 h 0.416512 v 0.32918 c 0,0.16663 -0.05396,0.30273 -0.162264,0.40825 -0.105531,0.10276 -0.248399,0.15399 -0.428914,0.15399 -0.147189,0 -0.259687,-0.0371 -0.337447,-0.11214 -0.07498,-0.075 -0.112655,-0.18475 -0.112655,-0.32917 0,-0.14719 0.0526,-0.25834 0.15813,-0.33332 0.105532,-0.0778 0.261129,-0.11679 0.466638,-0.11679 z m 7.534941,0 h 0.416512 v 0.32918 c 0,0.16663 -0.05447,0.30273 -0.162781,0.40825 -0.105532,0.10276 -0.2484,0.15399 -0.428914,0.15399 -0.147189,0 -0.259687,-0.0371 -0.337447,-0.11214 -0.07498,-0.075 -0.112138,-0.18475 -0.112138,-0.32917 0,-0.14719 0.0526,-0.25834 0.15813,-0.33332 0.105532,-0.0778 0.261129,-0.11679 0.466638,-0.11679 z" />
  </g>
</svg>
