<?xml version="1.0" encoding="UTF-8" standalone="no"?>
<!-- Created with Inkscape (http://www.inkscape.org/) -->

<svg
   width="199.3457"
   height="59.787022"
   viewBox="0 0 52.743549 15.81865"
   version="1.1"
   id="svg2219"
   xmlns="http://www.w3.org/2000/svg"
   xmlns:svg="http://www.w3.org/2000/svg"
   xmlns:rdf="http://www.w3.org/1999/02/22-rdf-syntax-ns#"
   xmlns:cc="http://creativecommons.org/ns#"
   xmlns:dc="http://purl.org/dc/elements/1.1/">
  <defs
     id="defs2213">
    <clipPath
       clipPathUnits="userSpaceOnUse"
       id="clipPath931">
      <rect
         y="11.249973"
         x="1030.5166"
         height="285.75"
         width="285.75"
         id="rect933"
         style="opacity:1;fill:#ffffff;fill-opacity:1;stroke:none;stroke-width:3.96875;stroke-linecap:round;stroke-miterlimit:4;stroke-dasharray:none;stroke-opacity:1" />
    </clipPath>
    <rect
       x="357.57172"
       y="984"
       width="294.94916"
       height="237.53648"
       id="rect179-4" />
    <rect
       x="357.57172"
       y="984"
       width="294.94916"
       height="237.53648"
       id="rect203" />
    <rect
       x="357.57172"
       y="984"
       width="294.94916"
       height="237.53648"
       id="rect205" />
  </defs>
  <metadata
     id="metadata2216">
    <rdf:RDF>
      <cc:Work
         rdf:about="">
        <dc:format>image/svg+xml</dc:format>
        <dc:type
           rdf:resource="http://purl.org/dc/dcmitype/StillImage" />
      </cc:Work>
    </rdf:RDF>
  </metadata>
  <g
     id="layer3"
     transform="translate(-134.72459,-482.92772)">
    <path
       id="logo_white"
       style="fill:#ffffff;fill-opacity:1;stroke-width:0.132292;stroke-linecap:square;paint-order:stroke fill markers"
       d="m 134.72459,482.92772 v 0.18138 c 1.31553,0 1.46245,2.19057 1.46245,2.19057 v 10.47171 c 0,0 -0.1469,2.19056 -1.46245,2.19056 v 0.18139 h 1.46245 3.02772 1.46244 v -0.18139 c -1.31557,0 -1.46244,-2.19056 -1.46244,-2.19056 v -2.35645 c 0,0 0.0157,-1.51489 0.82579,-2.52542 l 0.13436,-0.16743 2.32905,4.26123 c 2.36282,4.09255 5.40128,4.13992 7.52978,2.96416 0.30023,0.29597 0.67933,0.52422 1.10484,0.65888 1.03016,0.32603 2.33223,0.11179 3.41581,-0.95136 0.10801,-0.10596 0.21269,-0.20283 0.29094,-0.27131 0.009,-0.008 0.0135,-0.0105 0.0217,-0.0176 0.0184,0.0462 0.038,0.0936 0.0563,0.15607 0.17532,0.59672 0.54632,0.95695 0.99219,1.11156 0.44588,0.15461 0.95587,0.11534 1.43764,-0.0351 0.48177,-0.15047 0.93871,-0.41282 1.28106,-0.72296 0.34235,-0.31015 0.58032,-0.67183 0.58032,-1.04283 0,-0.0616 -0.015,-0.12267 -0.0548,-0.17363 -0.0398,-0.051 -0.10437,-0.0825 -0.16381,-0.0879 -0.11889,-0.0105 -0.222,0.0483 -0.31833,0.13849 -0.19519,0.18284 -0.51347,0.32727 -0.78134,0.33383 -0.13393,0.003 -0.25223,-0.0248 -0.34779,-0.0894 -0.0956,-0.0647 -0.17338,-0.16616 -0.22066,-0.33641 0.001,0.005 -0.006,-0.0319 -0.01,-0.0817 -0.004,-0.0498 -0.008,-0.11824 -0.0119,-0.20515 -0.007,-0.17382 -0.0148,-0.41978 -0.0196,-0.73846 -0.01,-0.63735 -0.0134,-1.566 -0.0134,-2.79673 0,-2.04417 -0.002,-3.11357 -0.0491,-3.77135 -0.0465,-0.65776 -0.14551,-0.91819 -0.31626,-1.2733 -0.28303,-0.58843 -0.75873,-0.96341 -1.27951,-1.18598 -0.52078,-0.22257 -1.08743,-0.29869 -1.58182,-0.29869 h -0.16226 l 0.008,0.0351 c -1.74518,0.0508 -2.9582,0.79981 -3.64267,1.66192 -0.35397,0.44582 -0.57596,0.91146 -0.67748,1.31671 -0.10151,0.40525 -0.0975,0.75451 0.078,0.97617 0.21026,0.26554 0.4994,0.37966 0.91984,0.37724 0.47011,-0.003 0.83807,-0.18242 1.08986,-0.54105 0.0751,-0.10701 0.12939,-0.20174 0.16019,-0.3359 0.0308,-0.13416 0.0437,-0.30296 0.0625,-0.5979 0.0375,-0.58755 0.16618,-0.95904 0.36897,-1.17977 0.2028,-0.22072 0.49179,-0.31419 0.91829,-0.31419 0.41217,0 0.70215,0.13886 0.92966,0.37672 0.22242,0.23255 0.37695,0.57086 0.48421,0.9555 l -0.0971,-0.63046 c 0.002,0.003 0.003,0.007 0.005,0.01 l 0.0977,0.62994 c 0.001,0.005 0.005,0.007 0.006,0.0119 0.005,0.0178 3.7e-4,0.0389 0.006,0.0568 l 0.0186,0.11989 c 0.0623,0.27312 0.10392,0.56235 0.13126,0.85369 l 0.19172,1.24385 -0.18862,-1.21181 c 0.0432,0.47814 0.0504,0.95801 0.0506,1.36943 -1.25532,0.33829 -2.5911,0.72292 -3.63285,1.4335 -1.07193,0.73116 -1.83038,1.81274 -1.83038,3.45715 0,0.26497 0.0474,0.51773 0.13384,0.75293 -1.67189,0.22398 -2.88304,-0.7539 -3.77186,-2.2934 l -3.63647,-6.43837 2.68149,-3.3445 c 0,0 1.48081,-1.90841 2.82205,-1.90841 v -0.18138 h -4.16512 v 0.18138 c 1.55936,0.47475 0.0295,2.43655 0.0295,2.43655 l -4.21938,5.16196 v -5.40794 c 0,0 0.14637,-2.19057 1.46192,-2.19057 v -0.18138 h -1.46192 -3.02824 z m 20.02927,7.15305 c -9.7e-4,-0.0107 -0.002,-0.0213 -0.003,-0.032 l -0.13126,-0.85369 c -0.005,-0.0222 -0.009,-0.0452 -0.0145,-0.0672 z m 8.22741,-7.15305 v 0.18138 c 1.31551,0 1.46244,2.19057 1.46244,2.19057 v 10.47171 c 0,0 -0.14691,2.19056 -1.46244,2.19056 v 0.18139 h 1.46244 3.02824 1.46192 v -0.18139 c -1.31553,0 -1.46192,-2.19056 -1.46192,-2.19056 v -4.93613 c 1.57597,0.18116 2.51574,2.79202 3.30574,4.14806 2.18011,3.77611 4.9373,4.10952 7.02283,3.21531 0.17001,-0.0729 0.33484,-0.15472 0.49454,-0.24339 0.29883,0.29208 0.675,0.5177 1.09657,0.65112 1.03016,0.32603 2.33274,0.11179 3.41633,-0.95136 0.108,-0.10596 0.21269,-0.20283 0.29094,-0.27131 0.009,-0.008 0.013,-0.0105 0.0212,-0.0176 0.0184,0.0462 0.0385,0.0936 0.0568,0.15607 0.17533,0.59672 0.54632,0.95695 0.99219,1.11156 0.44587,0.15461 0.95586,0.11481 1.43764,-0.0357 0.48178,-0.15048 0.9387,-0.4123 1.28106,-0.72244 0.34236,-0.31015 0.58032,-0.67183 0.58032,-1.04283 0,-0.0616 -0.015,-0.12319 -0.0548,-0.17415 -0.0398,-0.051 -0.10489,-0.0825 -0.16433,-0.0879 -0.11889,-0.0105 -0.222,0.0488 -0.31833,0.13901 -0.1952,0.18284 -0.51141,0.32727 -0.77928,0.33383 -0.13393,0.003 -0.25377,-0.0253 -0.34933,-0.0899 -0.0956,-0.0647 -0.17339,-0.16565 -0.22066,-0.3359 0.001,0.005 -0.006,-0.0324 -0.0103,-0.0822 -0.004,-0.0498 -0.008,-0.11772 -0.0114,-0.20463 -0.007,-0.17382 -0.0132,-0.41978 -0.0181,-0.73846 -0.01,-0.63735 -0.0155,-1.566 -0.0155,-2.79673 0,-2.04417 -0.002,-3.1141 -0.0486,-3.77186 -0.0465,-0.65777 -0.14552,-0.91819 -0.31626,-1.27331 -0.28304,-0.58843 -0.75873,-0.96289 -1.27951,-1.18546 -0.52078,-0.22257 -1.08744,-0.29869 -1.58182,-0.29869 h -0.1328 v 0.031 c -1.75878,0.0441 -2.97615,0.79986 -3.66386,1.66605 -0.35397,0.44582 -0.57648,0.91095 -0.678,1.3162 -0.10152,0.40525 -0.0975,0.75502 0.078,0.97668 0.21026,0.26554 0.4994,0.37966 0.91984,0.37724 0.47012,-0.003 0.83808,-0.18242 1.08986,-0.54105 0.0751,-0.10701 0.12939,-0.20174 0.1602,-0.3359 0.0308,-0.13417 0.0437,-0.30296 0.0625,-0.5979 0.0375,-0.58755 0.16668,-0.95904 0.36948,-1.17977 0.20279,-0.22072 0.49127,-0.31419 0.91778,-0.31419 0.41215,0 0.70215,0.13886 0.92965,0.37672 0.21481,0.22459 0.36176,0.55393 0.46871,0.92191 l 0.0491,0.31626 c 0.14901,0.71411 0.18671,1.52402 0.18707,2.17041 -1.25535,0.33829 -2.59059,0.72292 -3.63234,1.4335 -1.07193,0.73116 -1.83038,1.81223 -1.83038,3.45664 0,0.23274 0.038,0.45528 0.10542,0.66559 -2.84581,0.0608 -4.65832,-3.63972 -6.01927,-6.41873 2.01934,-0.15498 3.87894,-1.87333 3.81062,-3.89744 v -0.0139 c 0,-2.06994 -1.67816,-3.74809 -3.74809,-3.74809 h -7.29981 z m 4.49068,0.82114 h 1.87947 c 1.65859,0 3.00292,1.34483 3.00292,3.00343 v 0.24598 c 0,1.65861 -1.34433,3.00344 -3.00292,3.00344 h -1.87947 z m 15.36495,5.24826 c 0.002,0.009 0.009,0.0123 0.0119,0.0212 0.009,0.0344 6.4e-4,0.0745 0.01,0.10956 z m -28.02516,3.45095 -0.0139,3.75171 c -0.26556,0.28502 -0.54971,0.54139 -0.863,0.6997 -0.32244,0.16295 -0.66949,0.22823 -1.07022,0.14624 -0.77874,-0.25874 -1.13169,-1.06103 -0.99632,-1.95905 0.1357,-0.90021 0.77025,-1.87063 1.97249,-2.38642 0.12546,-0.0538 0.39873,-0.12691 0.63872,-0.1819 0.11999,-0.0275 0.23355,-0.0515 0.32039,-0.0682 0.005,-9.1e-4 0.007,-0.001 0.0119,-0.002 z m 28.25409,0 -0.0139,3.75171 c -0.26525,0.28456 -0.55012,0.5416 -0.863,0.6997 -0.32245,0.16295 -0.67002,0.22823 -1.07074,0.14624 -0.77875,-0.25874 -1.1291,-1.06103 -0.99373,-1.95905 0.13569,-0.90021 0.76818,-1.87063 1.97042,-2.38642 0.12546,-0.0538 0.39873,-0.12691 0.63872,-0.1819 0.12,-0.0275 0.23356,-0.0515 0.32039,-0.0682 0.005,-9e-4 0.007,-0.001 0.0119,-0.002 z m -21.96765,3.66799 a 1.2491305,1.2491305 0 0 0 -1.24954,1.24902 1.2491305,1.2491305 0 0 0 1.24954,1.24902 1.2491305,1.2491305 0 0 0 1.24902,-1.24902 1.2491305,1.2491305 0 0 0 -1.24902,-1.24902 z" />
  </g>
</svg>
