<svg width="32" height="32" viewBox="0 0 57.091341 57.091346" version="1.1" xmlns="http://www.w3.org/2000/svg">
  <g transform="translate(-211.39648,-467.58302)">
    <g id="logo_blue_white">
      <circle
         style="fill:#ffffff;fill-opacity:1;stroke:none;stroke-width:0.132292;stroke-linecap:square;stroke-opacity:1;paint-order:stroke fill markers"
         id="circle53"
         cx="239.94215"
         cy="496.12869"
         r="28.545671" />
      <path
         id="circle54"
         style="fill:#346754;fill-opacity:1;stroke-width:0.132292;stroke-linecap:square;paint-order:stroke fill markers"
         d="m 242.28599,490.5903 -1.02371,5.2e-4 v 0.1266 c 0.92111,0 1.02371,1.53428 1.02371,1.53428 v 7.33185 c 0,0 -0.10258,1.53376 -1.02371,1.53376 v 0.12712 h 1.02371 2.12028 1.02371 v -0.12712 c -0.92113,0 -1.02371,-1.53376 -1.02371,-1.53376 v -3.45612 c 1.10348,0.12685 1.76144,1.95523 2.31459,2.90473 1.52649,2.64399 3.45726,2.87715 4.91753,2.25103 0.11916,-0.0511 0.23431,-0.10837 0.34623,-0.17053 0.20923,0.2045 0.47273,0.36237 0.76791,0.45578 0.72131,0.22829 1.63338,0.0783 2.3921,-0.66611 0.0756,-0.0742 0.14882,-0.1417 0.20361,-0.18965 0.006,-0.006 0.009,-0.007 0.0145,-0.0124 0.0129,0.0324 0.0269,0.0653 0.0398,0.10904 0.12276,0.41781 0.38285,0.66999 0.69505,0.77824 0.31219,0.10826 0.66931,0.0805 1.00665,-0.0248 0.33733,-0.10537 0.65688,-0.28875 0.89659,-0.50591 0.23972,-0.21716 0.40669,-0.47042 0.40669,-0.73019 0,-0.0431 -0.0109,-0.0863 -0.0387,-0.12196 -0.0279,-0.0357 -0.0731,-0.0577 -0.11473,-0.0615 -0.0833,-0.007 -0.15579,0.0346 -0.22324,0.0977 -0.13667,0.12803 -0.35762,0.22898 -0.54518,0.23358 -0.0938,0.002 -0.17804,-0.0177 -0.24495,-0.063 -0.0669,-0.0453 -0.12141,-0.11592 -0.15451,-0.23513 7e-4,0.003 -0.004,-0.023 -0.007,-0.0579 -0.003,-0.0349 -0.006,-0.0822 -0.008,-0.14314 -0.005,-0.12171 -0.009,-0.29364 -0.0124,-0.51677 -0.007,-0.44627 -0.0109,-1.09679 -0.0109,-1.95853 0,-1.43131 -10e-4,-2.18063 -0.0341,-2.64119 -0.0326,-0.46057 -0.10214,-0.64276 -0.22169,-0.89141 -0.19819,-0.41201 -0.53091,-0.67409 -0.89555,-0.82993 -0.36465,-0.15584 -0.76179,-0.20929 -1.10795,-0.20929 l -0.093,5.2e-4 v 0.0217 c -1.23148,0.0309 -2.08369,0.55984 -2.56522,1.16634 -0.24784,0.31215 -0.40382,0.63764 -0.47491,0.92139 -0.0711,0.28375 -0.0681,0.52899 0.0548,0.6842 0.14722,0.18592 0.3495,0.26575 0.64389,0.26406 0.32917,-0.002 0.58697,-0.12767 0.76326,-0.37878 0.0526,-0.0749 0.0906,-0.14119 0.11213,-0.23513 0.0216,-0.0939 0.0307,-0.21207 0.0439,-0.41858 0.0263,-0.4114 0.11639,-0.67176 0.25838,-0.82631 0.142,-0.15455 0.34422,-0.22014 0.64286,-0.22014 0.28859,0 0.49182,0.0975 0.65112,0.26407 0.1504,0.15726 0.25327,0.38778 0.32815,0.64544 l 0.0341,0.22117 c 0.10434,0.50001 0.131,1.06721 0.13126,1.51981 -0.87899,0.23685 -1.81409,0.50601 -2.54351,1.00355 -0.75056,0.51196 -1.28158,1.26913 -1.28158,2.42053 0,0.16298 0.0267,0.31885 0.0739,0.46612 -1.99257,0.0425 -3.26183,-2.54849 -4.21473,-4.4943 1.41392,-0.10851 2.71588,-1.31178 2.66805,-2.72903 v -0.01 c 0,-1.44935 -1.17479,-2.62465 -2.62413,-2.62465 z m -20.80907,5.2e-4 v 0.12712 c 0.92112,0 1.02371,1.53376 1.02371,1.53376 v 7.33185 c 0,0 -0.10258,1.53376 -1.02371,1.53376 v 0.12712 h 1.02371 2.12029 1.02422 v -0.12712 c -0.92115,0 -1.02422,-1.53376 -1.02422,-1.53376 v -1.65003 c 0,0 0.011,-1.06081 0.57825,-1.76837 l 0.0941,-0.1173 1.6309,2.98431 c 1.65461,2.86589 3.78218,2.89837 5.27255,2.07481 0.2102,0.20718 0.47572,0.3672 0.7736,0.46147 0.72131,0.22828 1.63287,0.0783 2.39158,-0.66611 0.0756,-0.0742 0.14933,-0.14222 0.20412,-0.19017 0.006,-0.006 0.009,-0.007 0.015,-0.0124 0.0129,0.0323 0.0265,0.0658 0.0393,0.10956 0.12275,0.4178 0.38285,0.66998 0.69505,0.77824 0.3122,0.10825 0.66933,0.0806 1.00666,-0.0248 0.33733,-0.10536 0.65688,-0.28875 0.89658,-0.50591 0.23971,-0.21716 0.4067,-0.47042 0.4067,-0.73019 0,-0.0431 -0.0109,-0.0858 -0.0388,-0.12144 -0.0279,-0.0357 -0.0731,-0.0582 -0.11472,-0.062 -0.0832,-0.007 -0.15528,0.034 -0.22273,0.0971 -0.13667,0.12802 -0.35969,0.22899 -0.54725,0.23358 -0.0938,0.002 -0.17649,-0.0173 -0.2434,-0.0625 -0.0669,-0.0453 -0.12141,-0.11593 -0.15451,-0.23513 7e-4,0.003 -0.004,-0.0225 -0.007,-0.0574 -0.003,-0.0349 -0.006,-0.0828 -0.008,-0.14366 -0.005,-0.12171 -0.0101,-0.29415 -0.0134,-0.51728 -0.007,-0.44627 -0.009,-1.09627 -0.009,-1.95802 0,-1.4313 -7.1e-4,-2.18009 -0.0341,-2.64067 -0.0326,-0.46056 -0.10214,-0.64277 -0.22169,-0.89142 -0.19818,-0.41201 -0.5309,-0.6746 -0.89555,-0.83044 -0.36464,-0.15584 -0.76178,-0.20929 -1.10795,-0.20929 l -0.11472,5.2e-4 0.006,0.0243 c -1.22195,0.0356 -2.07149,0.56011 -2.55074,1.16375 -0.24785,0.31216 -0.40331,0.63816 -0.47439,0.92191 -0.0711,0.28375 -0.0681,0.52848 0.0548,0.68368 0.14722,0.18593 0.34951,0.26576 0.64389,0.26406 0.32917,-0.002 0.58696,-0.12767 0.76326,-0.37878 0.0526,-0.0749 0.0906,-0.14119 0.11214,-0.23513 0.0216,-0.0939 0.0307,-0.21207 0.0439,-0.41858 0.0262,-0.4114 0.11639,-0.67176 0.25839,-0.82631 0.14199,-0.15455 0.34422,-0.22014 0.64285,-0.22014 0.2886,0 0.49182,0.0975 0.65112,0.26407 0.15574,0.16283 0.2639,0.39937 0.339,0.66869 l -0.0682,-0.44132 c 10e-4,0.002 0.002,0.005 0.004,0.007 l 0.0682,0.4408 c 7e-4,0.004 0.004,0.005 0.004,0.008 0.004,0.0125 6.1e-4,0.0272 0.004,0.0398 l 0.0129,0.0837 c 0.0436,0.19124 0.0729,0.39391 0.092,0.5979 l 0.13384,0.87075 -0.13178,-0.84853 c 0.0302,0.33479 0.035,0.67105 0.0351,0.95912 -0.87896,0.23686 -1.81409,0.50601 -2.54351,1.00355 -0.75055,0.51195 -1.28157,1.26912 -1.28157,2.42053 0,0.1857 0.0329,0.36279 0.0935,0.52761 -1.17078,0.15696 -2.0188,-0.52757 -2.64118,-1.60558 l -2.54662,-4.50826 1.87792,-2.34197 c 0,0 1.03699,-1.33584 1.97611,-1.33584 v -0.12712 h -2.91662 v 0.12712 c 1.09185,0.33242 0.0207,1.70584 0.0207,1.70584 l -2.95485,3.61425 v -3.78633 c 0,0 0.10309,-1.53376 1.02422,-1.53376 v -0.12712 h -1.02422 -2.12029 z m 22.92935,0.57464 h 1.3162 c 1.16133,0 2.10271,0.94138 2.10271,2.10271 v 0.1726 c 0,1.16134 -0.94138,2.10272 -2.10271,2.10272 h -1.3162 z m 10.75852,3.67471 c 10e-4,0.006 0.006,0.009 0.008,0.015 0.006,0.0241 8.1e-4,0.0525 0.007,0.077 z m -19.76779,0.0915 0.10439,0.66766 c -6.8e-4,-0.007 -10e-4,-0.0152 -0.002,-0.0227 l -0.092,-0.59738 c -0.004,-0.0155 -0.006,-0.0321 -0.0103,-0.0475 z m 0.1447,2.32492 -0.01,2.62723 c -0.18594,0.19957 -0.38525,0.37904 -0.60462,0.48989 -0.22576,0.1141 -0.46873,0.15973 -0.74931,0.10232 -0.54526,-0.18116 -0.79241,-0.74322 -0.69763,-1.37201 0.095,-0.63032 0.53952,-1.30955 1.38131,-1.6707 0.0879,-0.0377 0.27897,-0.0892 0.447,-0.12764 0.084,-0.0193 0.16348,-0.0358 0.22428,-0.0475 0.004,-6.3e-4 0.005,-7.3e-4 0.008,-10e-4 z m 19.78328,0 -0.01,2.62723 c -0.18572,0.19925 -0.38554,0.37919 -0.60462,0.48989 -0.22577,0.1141 -0.46924,0.15973 -0.74982,0.10232 -0.54527,-0.18116 -0.79035,-0.74322 -0.69557,-1.37201 0.095,-0.63032 0.53797,-1.30955 1.37976,-1.6707 0.0879,-0.0377 0.27896,-0.0892 0.447,-0.12764 0.084,-0.0193 0.16348,-0.0358 0.22428,-0.0475 0.004,-6.3e-4 0.005,-7.3e-4 0.008,-10e-4 z m -15.38149,2.56832 a 0.87462807,0.87462807 0 0 0 -0.87488,0.87488 0.87462807,0.87462807 0 0 0 0.87488,0.87437 0.87462807,0.87462807 0 0 0 0.87437,-0.87437 0.87462807,0.87462807 0 0 0 -0.87437,-0.87488 z" />
      <path
         style="color:#000000;fill:#b0834d;stroke-width:1;stroke-linecap:square;-inkscape-stroke:none;paint-order:stroke fill markers"
         d="m 239.94223,468.66089 c -15.16801,0 -27.46792,12.2999 -27.46792,27.46792 0,15.16801 12.29991,27.46791 27.46792,27.46791 15.16802,0 27.46792,-12.2999 27.46792,-27.46791 0,-15.16802 -12.2999,-27.46792 -27.46792,-27.46792 z m 0,0.3799 c 14.9625,0 27.08802,12.12552 27.08802,27.08802 0,14.9625 -12.12552,27.08801 -27.08802,27.08801 -14.9625,0 -27.08802,-12.12551 -27.08802,-27.08801 0,-14.9625 12.12552,-27.08802 27.08802,-27.08802 z"
         id="path58" />
    </g>
  </g>
</svg>